<?xml version="1.0" encoding="utf-8"?>
<!-- Generator: Adobe Illustrator 17.1.0, SVG Export Plug-In . SVG Version: 6.00 Build 0)  -->
<!DOCTYPE svg PUBLIC "-//W3C//DTD SVG 1.1//EN" "http://www.w3.org/Graphics/SVG/1.1/DTD/svg11.dtd">
<svg version="1.1" id="Calque_1" xmlns="http://www.w3.org/2000/svg" xmlns:xlink="http://www.w3.org/1999/xlink" x="0px" y="0px"
	 viewBox="0 0 3508 4961" enable-background="new 0 0 3508 4961" xml:space="preserve">
<path id="id-card-8-icon" d="M1483.4,1069.1v952.4h541.3v-952.4H1483.4z M1754,1650.1c-58.2,0-104.8-47.3-104.8-104.8
	s47.3-104.8,104.8-104.8c58.2,0,104.8,47.3,104.8,104.8S1812.2,1650.1,1754,1650.1z M3165.4,1747.4v2144.5H342.6V1747.4h935.2v274.1
	H616.6v1596.4h2274.7V2021.4h-661.2v-274.1H3165.4z M2624.1,2975.2h-676.2v-205.5h676.2V2975.2z M2180.9,3363v-205.5h443.3V3363
	H2180.9z M1239.4,2933.4c-197.3-363.1-56.2-569.4,155.5-569.4c207.6,0,352.2,198.7,155.5,569.4c-64.4,122,68.5,150.7,212.4,183.6
	c143.2,32.9,132.2,108.9,132.2,246H894.8c0-137-11-212.4,132.2-246C1167.5,3084.8,1305.9,3056,1239.4,2933.4z M2624.1,2586.7h-676.2
	v-205.5h676.2V2586.7z"/>
</svg>
