<?xml version="1.0" encoding="utf-8"?>
<!-- Generator: Adobe Illustrator 17.1.0, SVG Export Plug-In . SVG Version: 6.00 Build 0)  -->
<!DOCTYPE svg PUBLIC "-//W3C//DTD SVG 1.1//EN" "http://www.w3.org/Graphics/SVG/1.1/DTD/svg11.dtd">
<svg version="1.1" id="Calque_1" xmlns="http://www.w3.org/2000/svg" xmlns:xlink="http://www.w3.org/1999/xlink" x="0px" y="0px"
	 viewBox="0 0 3508 4961" enable-background="new 0 0 3508 4961" xml:space="preserve">
<path id="id-card-13-icon" d="M2913.3,2061.2v1288.1H1044.2V2061.2H2913.3L2913.3,2061.2z M3165.4,1809H792v1791.7h2373.4V1809z
	 M2063,2930c-131.6-30.1-254.2-56.9-195.3-169.2c180.9-341.2,48-523.5-143.2-523.5c-194.6,0-324.1,189.1-143.2,523.5
	c61,112.4-65.8,139.1-195.3,169.2c-131.5,30.1-121.3,100-121.3,226.1h919.5C2185,3030,2195.2,2960.8,2063,2930z M2702.3,2253.7
	h-469.3v189.1h469.3V2253.7L2702.3,2253.7z M2702.3,2610.7h-469.3v189.1h469.3V2610.7L2702.3,2610.7z M2702.3,2967h-275.4v189.1
	h275.4V2967z M2743.4,1360.3H342.6v1825.9h252.1V1611.7h2148.7L2743.4,1360.3L2743.4,1360.3z"/>
</svg>
