<?xml version="1.0" encoding="utf-8"?>
<!-- Generator: Adobe Illustrator 17.1.0, SVG Export Plug-In . SVG Version: 6.00 Build 0)  -->
<!DOCTYPE svg PUBLIC "-//W3C//DTD SVG 1.1//EN" "http://www.w3.org/Graphics/SVG/1.1/DTD/svg11.dtd">
<svg version="1.1" id="Calque_1" xmlns="http://www.w3.org/2000/svg" xmlns:xlink="http://www.w3.org/1999/xlink" x="0px" y="0px"
	 viewBox="0 0 3508 4961" enable-background="new 0 0 3508 4961" xml:space="preserve">
<g>
	<path fill="none" d="M1754,1440.5c-57.5,0-104.8,47.3-104.8,104.8s46.6,104.8,104.8,104.8s104.8-47.3,104.8-104.8
		S1812.2,1440.5,1754,1440.5z"/>
	<path d="M2024.7,1069.1h-541.3v952.4h541.3V1069.1z M1754,1650.1c-58.2,0-104.8-47.3-104.8-104.8s47.3-104.8,104.8-104.8
		c58.2,0,104.8,47.3,104.8,104.8S1812.2,1650.1,1754,1650.1z"/>
	<rect x="2180.9" y="3157.5" width="443.3" height="205.5"/>
	<path fill="#9FB100" d="M1239.4,2933.4c66.5,122.6-71.9,151.4-212.4,183.6c-143.2,33.6-132.2,109-132.2,246H1895
		c0-137.1,11-213.1-132.2-246c-143.9-32.9-276.8-61.6-212.4-183.6c196.7-370.7,52.1-569.4-155.5-569.4
		C1183.2,2364,1042.1,2570.3,1239.4,2933.4z"/>
	<polygon points="2230.1,1747.3 2230.1,2021.4 2891.3,2021.4 2891.3,3617.9 616.6,3617.9 616.6,2021.5 1277.8,2021.5 1277.8,1747.4 
		342.6,1747.4 342.6,3891.9 3165.4,3891.9 3165.4,1747.4 3165.4,1747.3 	"/>
	<rect x="1947.9" y="2769.7" width="676.2" height="205.5"/>
	<rect x="1947.9" y="2381.2" width="676.2" height="205.5"/>
</g>
</svg>
