<?xml version="1.0" encoding="utf-8"?>
<!-- Generator: Adobe Illustrator 17.1.0, SVG Export Plug-In . SVG Version: 6.00 Build 0)  -->
<!DOCTYPE svg PUBLIC "-//W3C//DTD SVG 1.1//EN" "http://www.w3.org/Graphics/SVG/1.1/DTD/svg11.dtd">
<svg version="1.1" id="Calque_1" xmlns="http://www.w3.org/2000/svg" xmlns:xlink="http://www.w3.org/1999/xlink" x="0px" y="0px"
	 viewBox="0 0 3508 4961" enable-background="new 0 0 3508 4961" xml:space="preserve">
<path id="map-icon" d="M2718.7,1070.4c-246.7,0-446.7,200.1-446.7,446.7c0,366.6,350.8,405.6,446.7,962.6
	c95.2-557.7,446.7-596.1,446.7-962.6C3165.4,1269.8,2965.4,1070.4,2718.7,1070.4z M2718.7,1665.8c-88.4,0-160.3-71.9-160.3-160.3
	s71.9-160.3,160.3-160.3c88.4,0,160.3,71.9,160.3,160.3C2879,1593.9,2807.8,1665.8,2718.7,1665.8z M3151.7,2037.9
	c-74,92.5-144.6,180.9-192.5,322.7v983.2l-513.9,278.9V2279.1c-30.1-65.1-65.1-117.8-102.8-167.9v1500.5l-560.5-362.4V1770
	l486.5,246c-70.6-89.1-143.9-187.7-179.5-323.4l-355.6-180.9l-642.7,333.7l-748.2-398.1v2016.4l748.2,426.9l642.7-426.9l656.4,426.9
	l775.6-426.9V2020.8C3160.6,2026.9,3156.5,2032.4,3151.7,2037.9z M1034.6,3622.7l-486.5-278.9V1789.2l486.5,259.7V3622.7z
	 M1684.1,3248.6l-546.8,363.1v-1558l546.8-283.7V3248.6z"/>
</svg>
