<?xml version="1.0" encoding="utf-8"?>
<!-- Generator: Adobe Illustrator 17.1.0, SVG Export Plug-In . SVG Version: 6.00 Build 0)  -->
<!DOCTYPE svg PUBLIC "-//W3C//DTD SVG 1.1//EN" "http://www.w3.org/Graphics/SVG/1.1/DTD/svg11.dtd">
<svg version="1.1" id="Calque_1" xmlns="http://www.w3.org/2000/svg" xmlns:xlink="http://www.w3.org/1999/xlink" x="0px" y="0px"
	 viewBox="0 0 3508 4961" enable-background="new 0 0 3508 4961" xml:space="preserve">
<path id="pin-11-icon" d="M1865.7,2325v875.6h-223.4V2325c36.3,6.2,74,8.9,111.7,8.9C1791.7,2333.9,1829.4,2330.5,1865.7,2325z
	 M2313.8,1636.4c0,309-250.8,559.8-559.8,559.8s-559.8-250.8-559.8-559.8s250.8-559.8,559.8-559.8S2313.8,1327.4,2313.8,1636.4z
	 M1691,1308.2c-49.3-43.8-130.9-29.5-182.3,30.8c-51.4,61-52.8,145.3-3.4,188.4c49.3,43.9,130.9,29.5,182.3-30.8
	C1738.9,1436.3,1740.3,1352,1691,1308.2z M3165.4,3884.4l-788.6-285.7l-621.4,285.7l-657.8-285.7l-755,285.7l463.2-920.8
	l640.6-268.6l0.7,224l-491.3,204.2l-192.5,383.7l317.9-120.6l185-330.2l-74.7,358.3l509.1,219.2l54.8-247.3l61.7,249.4l470.7-221.3
	l-75.4-368.6l186.4,343.3l351.5,126.8l-197.3-392.6L2058.2,2908v-222.7l644,278.2L3165.4,3884.4z"/>
</svg>
