<?xml version="1.0" encoding="utf-8"?>
<!-- Generator: Adobe Illustrator 17.1.0, SVG Export Plug-In . SVG Version: 6.00 Build 0)  -->
<!DOCTYPE svg PUBLIC "-//W3C//DTD SVG 1.1//EN" "http://www.w3.org/Graphics/SVG/1.1/DTD/svg11.dtd">
<svg version="1.1" id="Calque_1" xmlns="http://www.w3.org/2000/svg" xmlns:xlink="http://www.w3.org/1999/xlink" x="0px" y="0px"
	 viewBox="0 1070.4 3508 2820.2" enable-background="new 0 1070.4 3508 2820.2" xml:space="preserve">
<g>
	<polygon fill="none" points="548.1,3343.8 1034.6,3622.7 1034.6,2048.9 548.1,1789.2 	"/>
	<polygon fill="none" points="1137.3,3611.7 1684.1,3248.6 1684.1,3248.6 1684.1,1770 1137.3,2053.7 	"/>
	<path fill="none" d="M2879,1505.5c0-88.4-71.9-160.3-160.3-160.3c-88.4,0-160.3,71.9-160.3,160.3s71.9,160.3,160.3,160.3
		C2807.8,1665.8,2879,1593.9,2879,1505.5z"/>
	<g>
		<path fill="none" d="M2718.7,1345.2c-88.4,0-160.3,71.9-160.3,160.3s71.9,160.3,160.3,160.3c89.1,0,160.3-71.9,160.3-160.3
			S2807.1,1345.2,2718.7,1345.2z"/>
		<path fill="#9FB100" d="M2718.7,1070.4c-246.7,0-446.7,200.1-446.7,446.7c0,366.6,350.8,405.6,446.7,962.6
			c95.2-557.7,446.7-596.1,446.7-962.6C3165.4,1269.8,2965.4,1070.4,2718.7,1070.4z M2718.7,1665.8c-88.4,0-160.3-71.9-160.3-160.3
			s71.9-160.3,160.3-160.3c88.4,0,160.3,71.9,160.3,160.3S2807.8,1665.8,2718.7,1665.8z"/>
	</g>
	<path d="M2959.2,2360.6v983.2l-513.9,278.9V2279.1c-30.1-65.1-65.1-117.8-102.8-167.9v1500.5L1782,3249.3V1770l486.5,246
		c-70.6-89.1-143.9-187.7-179.5-323.4l-355.6-180.9l-642.7,333.7l-748.2-398.1v2016.4l748.2,426.9l642.7-426.9l656.4,426.9
		l775.6-426.9V2020.8c-4.8,6.1-8.9,11.6-13.7,17.1C3077.7,2130.4,3007.1,2218.8,2959.2,2360.6z M1034.6,3622.7l-486.5-278.9V1789.2
		l486.5,259.7V3622.7z M1684.1,3248.6L1684.1,3248.6l-546.8,363.1v-1558l546.8-283.7L1684.1,3248.6L1684.1,3248.6z"/>
</g>
</svg>
