<?xml version="1.0" encoding="utf-8"?>
<!-- Generator: Adobe Illustrator 17.1.0, SVG Export Plug-In . SVG Version: 6.00 Build 0)  -->
<!DOCTYPE svg PUBLIC "-//W3C//DTD SVG 1.1//EN" "http://www.w3.org/Graphics/SVG/1.1/DTD/svg11.dtd">
<svg version="1.1" id="Calque_1" xmlns="http://www.w3.org/2000/svg" xmlns:xlink="http://www.w3.org/1999/xlink" x="0px" y="0px"
	 viewBox="0 1753.1 3255.3 1137.6" enable-background="new 0 1753.1 3255.3 1137.6" xml:space="preserve">
<path fill="#12100B" d="M352.7,2880.4c-111.8,0-222.5-16.5-331.4-39.8l-4.9-12.6c-3.9-292.5-3.9-585-3.9-877.5
	c0-64.1-2.9-106.9-12.6-149.6l2.9-18.5l226.4-29.2l15.5,2.9c15.5,48.6,15.5,147.7,15.5,259.5c0,0,0,163.3,0,230.3
	c80.7-66.1,155.5-122.4,265.3-122.4c140.9,0,232.2,140.9,232.2,355.7C757,2748.2,624.8,2880.4,352.7,2880.4L352.7,2880.4z
	 M379,2290.5c-45.7,0-119.5,32.1-119.5,173V2651c0,70,26.2,98.1,88.4,98.1c96.2,0,155.5-98.1,155.5-254.6
	C504.3,2368.3,456.7,2290.5,379,2290.5L379,2290.5z"/>
<path fill="#12100B" d="M1582,2499.4l-13.6,18.5l-418.8,8.7c8.7,134.1,87.5,219.6,200.2,219.6c74.8,0,130.2-35,192.4-71.9l12.6,10.7
	l-9.7,117.6l-12.6,15.5c-82.6,50.5-165.2,69-262.4,69c-302.2,0-380-210.9-380-380c0-238.1,136-381.9,363.4-381.9
	c221.6,0,331.4,155.5,331.4,308C1584.9,2453.8,1584.9,2477.1,1582,2499.4L1582,2499.4z M1248.7,2252.6c-62.2,0-99.1,50.5-99.1,158.4
	l198.2-10.7C1347.8,2307,1311.9,2252.6,1248.7,2252.6L1248.7,2252.6z"/>
<path fill="#12100B" d="M2403.1,2499.4l-13.6,18.5l-418.8,8.7c8.7,134.1,87.5,219.6,200.2,219.6c74.8,0,130.2-35,192.4-71.9
	l12.6,10.7l-8.7,115.6l-12.6,15.5c-82.6,50.5-165.2,69-262.4,69c-302.2,0-380-210.9-380-380c0-238.1,136-381.9,363.4-381.9
	c221.6,0,331.4,155.5,331.4,308C2406,2453.8,2406,2477.1,2403.1,2499.4L2403.1,2499.4z M2070.8,2252.6c-62.2,0-99.1,50.5-99.1,158.4
	l198.2-10.7C2169.9,2307,2133,2252.6,2070.8,2252.6L2070.8,2252.6z"/>
<path fill="#12100B" d="M3249.5,2887.8l-251.7,2.9l-19.4-12.6l-115.6-208.9l-130.2,208.9l-21.4,8.7h-206l-4.9-12.6
	c85.5-112.7,171-242.9,251.7-358.6c-72.9-119.5-136-213.8-216.7-315.8l2.9-18.5l237.1-29.2l15.5,4.9l108.8,195.3L3026,2157l15.5-4.9
	l189.5,23.3l2.9,18.5c-82.6,102-151.6,197.3-233.2,305.1c79.7,123.4,163.3,251.7,254.6,374.1L3249.5,2887.8L3249.5,2887.8z"/>
<path fill="#AEBA1C" d="M2971.6,2490.3l-109.8,179.8L2731.6,2879l-21.4,8.7h-206l-4.9-12.6c85.5-112.7,171-242.9,251.7-358.6
	c-72.9-119.5-136-213.8-216.7-315.8l2.9-18.5l237.1-29.2l15.5,4.9l108.8,195.3L2971.6,2490.3L2971.6,2490.3z"/>
</svg>
