<?xml version="1.0" encoding="utf-8"?>
<!-- Generator: Adobe Illustrator 17.1.0, SVG Export Plug-In . SVG Version: 6.00 Build 0)  -->
<!DOCTYPE svg PUBLIC "-//W3C//DTD SVG 1.1//EN" "http://www.w3.org/Graphics/SVG/1.1/DTD/svg11.dtd">
<svg version="1.1" id="Calque_1" xmlns="http://www.w3.org/2000/svg" xmlns:xlink="http://www.w3.org/1999/xlink" x="0px" y="0px"
	 viewBox="296 1847.3 4186 3449.7" enable-background="new 296 1847.3 4186 3449.7" xml:space="preserve">
<g id="Calque_1_1_">
	<g>
		<path fill="none" d="M1318.5,4276.3c-49.7-26.6-97.4-55.3-143-86.1c-26.5,92.8-48.3,151.9-48.3,151.9S1202.7,4321.9,1318.5,4276.3
			z"/>
		<path fill="none" d="M3626.3,3740.8c-227.3,401-690.4,706.7-1289.9,741.6c144.6,277.6,527.9,493,1087.2,344.8
			c189,110.7,355.9,155,355.9,155s-57-152.4-79.2-327.8c115.8-117.6,197.6-236.7,197.6-426.6
			C3898,4034.6,3793.2,3860.9,3626.3,3740.8z"/>
		<path fill="none" d="M1680.7,4101.1c1126.5,298.9,1793.1-350.8,1794.6-931.4c0-560.3-567.9-1016.6-1265.2-1016.6
			c-698.1,0-1265.2,456.4-1265.2,1016.6c0,295.4,126.9,481,306.6,664.1c-18.3,136-49.5,263.3-75.9,356.4
			c45.6,30.8,93.3,59.5,143,86.1C1417.2,4237.5,1545.2,4180.2,1680.7,4101.1z"/>
		<path fill="none" d="M1690.8,4418.5c-1.6,1-3.2,2-5,3c121.3,32.9,249,54.2,381.4,62.1c-0.6-1.6-1.1-3.2-1.7-4.7
			C1944.6,4469.5,1819.4,4450,1690.8,4418.5z"/>
	</g>
</g>
<g id="Calque_2">
	<g>
		<path fill="none" d="M3475.3,3169.7c0-560.3-567.9-1016.6-1265.2-1016.6c-698.1,0-1265.2,456.4-1265.2,1016.6
			c0,295.4,126.9,481,306.6,664.1c-18.3,136-49.5,263.3-75.9,356.4c-26.5,92.8-48.3,151.9-48.3,151.9s75.4-20.1,191.3-65.7
			c98.7-38.8,226.7-96.2,362.2-175.2C2807.2,4400,3473.8,3750.3,3475.3,3169.7z"/>
		<path fill="none" d="M2336.4,4482.5c144.6,277.6,527.9,493,1087.2,344.8c189,110.7,355.9,155,355.9,155s-57-152.4-79.2-327.8
			c115.8-117.6,197.6-236.7,197.6-426.6c0-192.4-103.9-365.5-269.5-485.5c-39.6,72.4-89.7,145.1-153.1,211.5
			C3221.7,4246.4,2824.1,4454,2336.4,4482.5z"/>
		<g>
			<path fill="none" d="M3475.3,3169.7c0-560.3-567.9-1016.6-1265.2-1016.6c-698.1,0-1265.2,456.4-1265.2,1016.6
				c0,295.4,126.9,481,306.6,664.1c-18.3,136-49.5,263.3-75.9,356.4c-26.5,92.8-48.3,151.9-48.3,151.9s75.4-20.1,191.3-65.7
				c98.7-38.8,226.7-96.2,362.2-175.2C2807.2,4400,3473.8,3750.3,3475.3,3169.7z"/>
			<path fill="none" d="M1690.8,4418.5c-1.6,1-3.2,2-5,3l24.4,1.6C1703.7,4421.6,1697.3,4420.1,1690.8,4418.5z"/>
			<path d="M2448,4472.7L2448,4472.7c-7.5,0.9-14.9,1.7-22.4,2.5C2440.3,4473.8,2448,4472.7,2448,4472.7z"/>
			<path d="M1685.8,4421.5c90.5,20.9,177.3,35,257.7,44.6c-76.3-10.1-154.2-24.2-233.4-43L1685.8,4421.5z"/>
			<path fill="#9FB100" d="M3965.2,4729.4c115.8-139.7,181.3-320.1,181.3-503.2c0-300.6-169.4-553.5-420.7-713.6
				c24-74.8,40.3-151.2,48.5-228.7c-6.6,58.9-36,257.6-145.9,458.3c165.7,120,269.5,293,269.5,485.5c0,189.9-81.8,309.1-197.6,426.6
				c22.1,175.5,79.2,327.8,79.2,327.8s-166.9-44.2-355.9-155c-559.3,148.1-942.6-67.2-1087.2-344.8c30.1-1.7,59.9-4.2,89.2-7.3
				c-61.4,6.1-244.2,19.1-482-9.1c41,5.5,81.6,9.7,121.9,12.7c0.6,1.6,1.1,3.2,1.7,4.7c154.6,428.5,683.7,754.9,1368.2,587
				c149,92,476,184.8,706.7,226.5C4055.4,5127.9,3960.1,4892.9,3965.2,4729.4z"/>
		</g>
		<path d="M3475.3,3954c63.4-66.5,113.5-139.2,153.1-211.5c-0.7-0.5-1.4-1-2.1-1.5C3583.9,3815.5,3533.4,3887,3475.3,3954z"/>
		<path d="M3775.9,3266.6L3775.9,3266.6c-0.5,5.8-1.1,11.7-1.7,17.5C3775.6,3272.7,3775.9,3266.6,3775.9,3266.6z"/>
		<path d="M2209.4,1847.3c-349.6,0-683.4,99-952.6,270.8c-370.1,236.1-618.2,609.4-618.2,1051.4c0,270.8,97.1,537.2,268.2,743.3
			c0.4,14.5,0.2,29.5-0.4,44.7c-9.7,238.5-141,559.6-260.2,796.4c338.1-61.6,817.8-197.2,1039.8-332.5c1.6-1,3.4-2,5-3
			c6.5,1.6,12.9,3.1,19.4,4.7c79.2,18.8,157.1,32.9,233.4,43c237.9,28.2,420.5,15.2,482,9.1c7.5-0.7,14.9-1.6,22.4-2.5
			c436.8-51.3,793.3-248.9,1027.3-518.7c58-67,108.6-138.4,151-213.1c0.7,0.5,1.4,1,2.1,1.5c109.9-200.7,139.2-399.4,145.9-458.3
			c0.6-5.8,1.2-11.7,1.7-17.5c2.9-32.2,4.3-64.5,4.3-97.1C3780.3,2401.6,3034.4,1847.3,2209.4,1847.3z M1680.7,4101.1
			c-135.6,79.2-263.6,136.4-362.2,175.2c-115.8,45.6-191.3,65.7-191.3,65.7s21.9-59,48.3-151.9c26.5-93.2,57.7-220.5,75.9-356.4
			c-179.7-183-306.6-368.7-306.6-664.1c0-560.2,567-1016.6,1265.2-1016.6c697.3,0,1265.2,456.3,1265.2,1016.6
			C3473.8,3750.3,2807.2,4400,1680.7,4101.1z"/>
	</g>
</g>
</svg>
