<?xml version="1.0" encoding="utf-8"?>
<!-- Generator: Adobe Illustrator 17.1.0, SVG Export Plug-In . SVG Version: 6.00 Build 0)  -->
<!DOCTYPE svg PUBLIC "-//W3C//DTD SVG 1.1//EN" "http://www.w3.org/Graphics/SVG/1.1/DTD/svg11.dtd">
<svg version="1.1" id="Calque_1" xmlns="http://www.w3.org/2000/svg" xmlns:xlink="http://www.w3.org/1999/xlink" x="0px" y="0px"
	 viewBox="0 0 3508 4961" enable-background="new 0 0 3508 4961" xml:space="preserve">
<path id="speech-bubble-14-icon" d="M3019.5,3410.9c93.2-112.4,145.9-257.6,145.9-404.9c0-241.9-136.3-445.4-338.5-574.2
	c28.8-89.8,43.8-182.3,43.8-276.1c0-618-600.2-1064-1264.1-1064c-668,0-1264.1,449.5-1264.1,1064c0,217.9,78.1,432.3,215.8,598.1
	c5.5,194.6-107.6,474.1-209.7,676.9c274.1-50,663.9-160.3,840.7-270c103.5,25.4,204.2,41.1,301.5,48.6
	c122.6,346.7,549.5,611.8,1102.4,476.2c119.9,74,383,148.7,568.7,182.3C3092.1,3731.6,3015.4,3542.5,3019.5,3410.9z M1181.2,2905.3
	c-237.1,138.4-445.4,193.9-445.4,193.9s70.6-190.5,100-409c-144.6-147.3-246.7-296.7-246.7-534.4c0-450.8,456.3-818.1,1018.1-818.1
	c561.1,0,1018.1,367.2,1018.1,818.1C2624.1,2623,2087.7,3145.8,1181.2,2905.3z M2870.1,3614.4c0,0-134.3-35.6-286.4-124.7
	c-450.1,119.2-758.5-54.1-874.9-277.5c482.4-28.1,855.1-274.1,1038-596.8c134.3,96.6,218.6,236.4,218.6,391.9
	c0,152.8-65.8,248.7-159,343.3C2824.2,3491.8,2870.1,3614.4,2870.1,3614.4z"/>
</svg>
