<?xml version="1.0" encoding="utf-8"?>
<!-- Generator: Adobe Illustrator 17.1.0, SVG Export Plug-In . SVG Version: 6.00 Build 0)  -->
<!DOCTYPE svg PUBLIC "-//W3C//DTD SVG 1.1//EN" "http://www.w3.org/Graphics/SVG/1.1/DTD/svg11.dtd">
<svg version="1.1" id="Calque_1" xmlns="http://www.w3.org/2000/svg" xmlns:xlink="http://www.w3.org/1999/xlink" x="0px" y="0px"
	 viewBox="0 0 3508 4961" enable-background="new 0 0 3508 4961" xml:space="preserve">
<path id="speech-bubble-15-icon" d="M1192.9,3154.7C1192.2,3154.7,1192.2,3154.7,1192.9,3154.7c-178.1,108.9-569.4,219.9-844.1,270
	c102.8-203.5,216.5-483,211-678.3c-139.1-166.5-217.2-380.9-217.2-598.8c0-615.3,598.8-1065.4,1268.9-1065.4
	c666,0,1268.9,446.7,1268.9,1065.4c0,8.9,0,17.8-0.7,26c-77.4-41.8-161-75.4-250.8-100.7c-47.3-417.3-485.1-744.8-1017.5-744.8
	c-563.2,0-1021.6,367.2-1021.6,819.4c0,237.7,102.8,387.1,248,535.1c-29.5,219.2-100,409.7-100,409.7s209-55.5,447.4-193.9
	C1174.4,2984.8,1177.1,3070.4,1192.9,3154.7z M3161.3,3879.6c-189.1-34.3-458.4-110.3-580.3-185.7
	c-672.1,164.4-1162-249.4-1162-693.4c0-426.2,415.2-733.1,873.6-733.1c461.1,0,873.6,309.7,873.6,733.1c0,150-54.1,298-148.7,412.5
	C3012.6,3546.6,3090.7,3739.1,3161.3,3879.6z M2072.6,3009.4c0-65.8-53.4-119.9-119.9-119.9s-119.9,53.4-119.9,119.9
	s53.4,119.9,119.9,119.9S2072.6,3075.2,2072.6,3009.4z M2430.9,3009.4c0-65.8-53.4-119.9-119.9-119.9s-119.9,53.4-119.9,119.9
	s53.4,119.9,119.9,119.9C2376.8,3129.3,2430.9,3075.2,2430.9,3009.4z M2783.8,3009.4c0-65.8-53.4-119.9-119.9-119.9
	S2544,2943,2544,3009.4s53.4,119.9,119.9,119.9S2783.8,3075.2,2783.8,3009.4z"/>
</svg>
