<?xml version="1.0" encoding="utf-8"?>
<!-- Generator: Adobe Illustrator 17.1.0, SVG Export Plug-In . SVG Version: 6.00 Build 0)  -->
<!DOCTYPE svg PUBLIC "-//W3C//DTD SVG 1.1//EN" "http://www.w3.org/Graphics/SVG/1.1/DTD/svg11.dtd">
<svg version="1.1" xmlns="http://www.w3.org/2000/svg" xmlns:xlink="http://www.w3.org/1999/xlink" x="0px" y="0px"
	 viewBox="0 0 3508 4961" enable-background="new 0 0 3508 4961" xml:space="preserve">
<g id="Calque_1">
	<g>
		<path fill="none" d="M889.7,3046.3c-40-21.4-78.4-44.5-115.1-69.3c-21.3,74.7-38.9,122.2-38.9,122.2S796.5,3083,889.7,3046.3z"/>
		<path fill="none" d="M2746.8,2615.4c-182.9,322.7-555.6,568.7-1038,596.8c116.4,223.4,424.8,396.7,874.9,277.5
			c152.1,89.1,286.4,124.7,286.4,124.7s-45.9-122.6-63.7-263.8c93.2-94.6,159-190.5,159-343.3
			C2965.4,2851.8,2881.1,2712,2746.8,2615.4z"/>
		<path fill="none" d="M1181.2,2905.3c906.5,240.5,1442.9-282.3,1444.1-749.5c0-450.9-457-818.1-1018.1-818.1
			c-561.8,0-1018.1,367.3-1018.1,818.1c0,237.7,102.1,387.1,246.7,534.4c-14.7,109.4-39.8,211.9-61.1,286.8
			c36.7,24.8,75.1,47.9,115.1,69.3C969.1,3015.1,1072.1,2969,1181.2,2905.3z"/>
		<path fill="none" d="M1189.3,3160.7c-1.3,0.8-2.6,1.6-4,2.4c97.6,26.5,200.4,43.6,306.9,50c-0.5-1.3-0.9-2.6-1.4-3.8
			C1393.5,3201.8,1292.8,3186.1,1189.3,3160.7z"/>
	</g>
</g>
<g id="Calque_2">
	<g>
		<path fill="none" d="M2625.3,2155.8c0-450.9-457-818.1-1018.1-818.1c-561.8,0-1018.1,367.3-1018.1,818.1
			c0,237.7,102.1,387.1,246.7,534.4c-14.7,109.4-39.8,211.9-61.1,286.8c-21.3,74.7-38.9,122.2-38.9,122.2s60.7-16.2,153.9-52.9
			c79.4-31.2,182.4-77.4,291.5-141C2087.7,3145.8,2624.1,2623,2625.3,2155.8z"/>
		<path fill="none" d="M1708.8,3212.2c116.4,223.4,424.8,396.7,874.9,277.5c152.1,89.1,286.4,124.7,286.4,124.7
			s-45.9-122.6-63.7-263.8c93.2-94.6,159-190.5,159-343.3c0-154.8-83.6-294.1-216.9-390.7c-31.9,58.3-72.2,116.8-123.2,170.2
			C2421.2,3022.2,2101.3,3189.3,1708.8,3212.2z"/>
		<g>
			<path fill="none" d="M2625.3,2155.8c0-450.9-457-818.1-1018.1-818.1c-561.8,0-1018.1,367.3-1018.1,818.1
				c0,237.7,102.1,387.1,246.7,534.4c-14.7,109.4-39.8,211.9-61.1,286.8c-21.3,74.7-38.9,122.2-38.9,122.2s60.7-16.2,153.9-52.9
				c79.4-31.2,182.4-77.4,291.5-141C2087.7,3145.8,2624.1,2623,2625.3,2155.8z"/>
			<path fill="none" d="M1189.3,3160.7c-1.3,0.8-2.6,1.6-4,2.4l19.6,1.3C1199.7,3163.2,1194.5,3162,1189.3,3160.7z"/>
			<path d="M1798.6,3204.3L1798.6,3204.3c-6,0.7-12,1.4-18,2C1792.4,3205.2,1798.6,3204.3,1798.6,3204.3z"/>
			<path d="M1185.3,3163.1c72.8,16.8,142.7,28.2,207.4,35.9c-61.4-8.1-124.1-19.5-187.8-34.6L1185.3,3163.1z"/>
			<path fill="#9FB100" d="M3019.5,3410.9c93.2-112.4,145.9-257.6,145.9-404.9c0-241.9-136.3-445.4-338.5-574.2
				c19.3-60.2,32.4-121.7,39-184c-5.3,47.4-29,207.3-117.4,368.8c133.3,96.6,216.9,235.8,216.9,390.7c0,152.8-65.8,248.7-159,343.3
				c17.8,141.2,63.7,263.8,63.7,263.8s-134.3-35.6-286.4-124.7c-450.1,119.2-758.5-54.1-874.9-277.5c24.2-1.4,48.2-3.4,71.8-5.9
				c-49.4,4.9-196.5,15.4-387.9-7.3c33,4.4,65.7,7.8,98.1,10.2c0.5,1.3,0.9,2.6,1.4,3.8c124.4,344.8,550.2,607.5,1101,472.4
				c119.9,74,383,148.7,568.7,182.3C3092.1,3731.6,3015.4,3542.5,3019.5,3410.9z"/>
		</g>
		<path d="M2625.3,2786.9c51-53.5,91.3-112,123.2-170.2c-0.6-0.4-1.1-0.8-1.7-1.2C2712.7,2675.5,2672,2733,2625.3,2786.9z"/>
		<path d="M2867.2,2233.8L2867.2,2233.8c-0.4,4.7-0.9,9.4-1.4,14.1C2866.9,2238.7,2867.2,2233.8,2867.2,2233.8z"/>
		<path d="M1606.6,1091.7c-281.3,0-549.9,79.7-766.6,217.9c-297.8,190-497.5,490.4-497.5,846.1c0,217.9,78.1,432.3,215.8,598.1
			c0.3,11.7,0.2,23.7-0.3,36c-7.8,191.9-113.5,450.3-209.4,640.9c272.1-49.6,658.1-158.7,836.7-267.6c1.3-0.8,2.7-1.6,4-2.4
			c5.2,1.3,10.4,2.5,15.6,3.8c63.7,15.1,126.4,26.5,187.8,34.6c191.4,22.7,338.4,12.2,387.9,7.3c6-0.6,12-1.3,18-2
			c351.5-41.3,638.4-200.3,826.7-417.4c46.7-53.9,87.4-111.4,121.5-171.5c0.6,0.4,1.1,0.8,1.7,1.2c88.4-161.5,112-321.4,117.4-368.8
			c0.5-4.7,1-9.4,1.4-14.1c2.3-25.9,3.5-51.9,3.5-78.1C2870.7,1537.7,2270.5,1091.7,1606.6,1091.7z M1181.2,2905.3
			c-109.1,63.7-212.1,109.8-291.5,141c-93.2,36.7-153.9,52.9-153.9,52.9s17.6-47.5,38.9-122.2c21.3-75,46.4-177.4,61.1-286.8
			c-144.6-147.3-246.7-296.7-246.7-534.4c0-450.8,456.3-818.1,1018.1-818.1c561.1,0,1018.1,367.2,1018.1,818.1
			C2624.1,2623,2087.7,3145.8,1181.2,2905.3z"/>
	</g>
</g>
</svg>
